# xmcd
#
# Track frame offsets:
#	150
#	18330
#	36318
#	55556
#	69475
#	86174
#	102892
#	120073
#	140477
#	155943
#	173978
#
# Disc length: 2534 seconds
#
# Revision: 1
# Processed by: cddbd v1.5.2PL0 Copyright (c) Steve Scherf et al.
# Submitted via: audiograbber 1.83.01
#
DISCID=8d09e40b
DTITLE=Jason Aldean - Wide Open
DYEAR=2009
DGENRE=Country
TTITLE0=Wide Open
TTITLE1=This I Gotta See
TTITLE2=Fast
TTITLE3=Crazy Town
TTITLE4=Don't Give Up On Me
TTITLE5=She's Country
TTITLE6=On My Highway
TTITLE7=Keep The Girl
TTITLE8=Big Green Tractor
TTITLE9=Truth
TTITLE10=Love Was Easy
EXTD=
EXTT0=
EXTT1=
EXTT2=
EXTT3=
EXTT4=
EXTT5=
EXTT6=
EXTT7=
EXTT8=
EXTT9=
EXTT10=
PLAYORDER=
